<svg width="100" height="100" viewBox="0 0 100 100" fill="none" xmlns="http://www.w3.org/2000/svg">
<path d="M12.5 81.25V25C12.5 24.1712 12.8292 23.3763 13.4153 22.7903C14.0013 22.2042 14.7962 21.875 15.625 21.875H36.4583C37.1345 21.875 37.7924 22.0943 38.3333 22.5L49.1667 30.625C49.7076 31.0307 50.3655 31.25 51.0417 31.25H78.125C78.9538 31.25 79.7487 31.5792 80.3347 32.1653C80.9208 32.7513 81.25 33.5462 81.25 34.375V43.75" stroke="black" stroke-width="2" stroke-linecap="round" stroke-linejoin="round"/>
<path d="M12.5 81.25L24.2142 51.9644C24.4462 51.3845 24.8466 50.8874 25.3638 50.5373C25.8809 50.1871 26.4912 50 27.1157 50H45.9288C46.5458 50 47.1489 49.8174 47.6623 49.4752L55.4627 44.2748C55.9761 43.9326 56.5792 43.75 57.1962 43.75H89.4143C89.9095 43.75 90.3975 43.8677 90.8383 44.0933C91.2791 44.3189 91.6599 44.6461 91.9494 45.0478C92.239 45.4495 92.4289 45.9142 92.5036 46.4037C92.5782 46.8932 92.5355 47.3935 92.3789 47.8632L81.25 81.25H12.5Z" stroke="black" stroke-width="2" stroke-linecap="round" stroke-linejoin="round"/>
</svg>
