<svg width="337" height="61" viewBox="0 0 337 61" fill="none" xmlns="http://www.w3.org/2000/svg">
<path d="M46.1797 41.4844C45.6068 47.5521 43.3672 52.2917 39.4609 55.7031C35.5547 59.0885 30.3594 60.7812 23.875 60.7812C19.3438 60.7812 15.3464 59.7135 11.8828 57.5781C8.44531 55.4167 5.78906 52.3568 3.91406 48.3984C2.03906 44.4401 1.0625 39.8438 0.984375 34.6094V29.2969C0.984375 23.9323 1.9349 19.2057 3.83594 15.1172C5.73698 11.0286 8.45833 7.8776 12 5.66406C15.5677 3.45052 19.6823 2.34375 24.3438 2.34375C30.6198 2.34375 35.6719 4.04948 39.5 7.46094C43.3281 10.8724 45.5547 15.6901 46.1797 21.9141H36.3359C35.8672 17.8255 34.6693 14.8828 32.7422 13.0859C30.8411 11.263 28.0417 10.3516 24.3438 10.3516C20.0469 10.3516 16.7396 11.9271 14.4219 15.0781C12.1302 18.2031 10.9583 22.7995 10.9062 28.8672V33.9062C10.9062 40.0521 12 44.7396 14.1875 47.9688C16.401 51.1979 19.6302 52.8125 23.875 52.8125C27.7552 52.8125 30.6719 51.9401 32.625 50.1953C34.5781 48.4505 35.8151 45.5469 36.3359 41.4844H46.1797ZM64.2266 60H54.7344V0H64.2266V60ZM99.8516 60C99.4349 59.1927 99.0703 57.8776 98.7578 56.0547C95.737 59.2057 92.0391 60.7812 87.6641 60.7812C83.4193 60.7812 79.9557 59.5703 77.2734 57.1484C74.5911 54.7266 73.25 51.7318 73.25 48.1641C73.25 43.6589 74.9167 40.2083 78.25 37.8125C81.6094 35.3906 86.401 34.1797 92.625 34.1797H98.4453V31.4062C98.4453 29.2188 97.8333 27.474 96.6094 26.1719C95.3854 24.8438 93.5234 24.1797 91.0234 24.1797C88.862 24.1797 87.0911 24.7266 85.7109 25.8203C84.3307 26.888 83.6406 28.2552 83.6406 29.9219H74.1484C74.1484 27.6042 74.9167 25.4427 76.4531 23.4375C77.9896 21.4062 80.0729 19.8177 82.7031 18.6719C85.3594 17.526 88.3151 16.9531 91.5703 16.9531C96.5182 16.9531 100.464 18.2031 103.406 20.7031C106.349 23.1771 107.859 26.6667 107.938 31.1719V50.2344C107.938 54.0365 108.471 57.0703 109.539 59.3359V60H99.8516ZM89.4219 53.1641C91.2969 53.1641 93.0547 52.7083 94.6953 51.7969C96.362 50.8854 97.612 49.6615 98.4453 48.125V40.1562H93.3281C89.8125 40.1562 87.1693 40.7682 85.3984 41.9922C83.6276 43.2161 82.7422 44.9479 82.7422 47.1875C82.7422 49.0104 83.3411 50.4688 84.5391 51.5625C85.763 52.6302 87.3906 53.1641 89.4219 53.1641ZM141.57 48.5156C141.57 46.8229 140.867 45.5339 139.461 44.6484C138.081 43.763 135.776 42.9818 132.547 42.3047C129.318 41.6276 126.622 40.7682 124.461 39.7266C119.721 37.4349 117.352 34.1146 117.352 29.7656C117.352 26.1198 118.888 23.0729 121.961 20.625C125.034 18.1771 128.94 16.9531 133.68 16.9531C138.732 16.9531 142.807 18.2031 145.906 20.7031C149.031 23.2031 150.594 26.4453 150.594 30.4297H141.102C141.102 28.6068 140.424 27.0964 139.07 25.8984C137.716 24.6745 135.919 24.0625 133.68 24.0625C131.596 24.0625 129.891 24.5443 128.562 25.5078C127.26 26.4714 126.609 27.7604 126.609 29.375C126.609 30.8333 127.221 31.9661 128.445 32.7734C129.669 33.5807 132.143 34.401 135.867 35.2344C139.591 36.0417 142.508 37.0182 144.617 38.1641C146.753 39.2839 148.328 40.638 149.344 42.2266C150.385 43.8151 150.906 45.7422 150.906 48.0078C150.906 51.8099 149.331 54.8958 146.18 57.2656C143.029 59.6094 138.901 60.7812 133.797 60.7812C130.333 60.7812 127.247 60.1562 124.539 58.9062C121.831 57.6562 119.721 55.9375 118.211 53.75C116.701 51.5625 115.945 49.2057 115.945 46.6797H125.164C125.294 48.9193 126.141 50.651 127.703 51.875C129.266 53.0729 131.336 53.6719 133.914 53.6719C136.414 53.6719 138.315 53.2031 139.617 52.2656C140.919 51.3021 141.57 50.0521 141.57 48.5156ZM182.898 48.5156C182.898 46.8229 182.195 45.5339 180.789 44.6484C179.409 43.763 177.104 42.9818 173.875 42.3047C170.646 41.6276 167.951 40.7682 165.789 39.7266C161.049 37.4349 158.68 34.1146 158.68 29.7656C158.68 26.1198 160.216 23.0729 163.289 20.625C166.362 18.1771 170.268 16.9531 175.008 16.9531C180.06 16.9531 184.135 18.2031 187.234 20.7031C190.359 23.2031 191.922 26.4453 191.922 30.4297H182.43C182.43 28.6068 181.753 27.0964 180.398 25.8984C179.044 24.6745 177.247 24.0625 175.008 24.0625C172.924 24.0625 171.219 24.5443 169.891 25.5078C168.589 26.4714 167.938 27.7604 167.938 29.375C167.938 30.8333 168.549 31.9661 169.773 32.7734C170.997 33.5807 173.471 34.401 177.195 35.2344C180.919 36.0417 183.836 37.0182 185.945 38.1641C188.081 39.2839 189.656 40.638 190.672 42.2266C191.714 43.8151 192.234 45.7422 192.234 48.0078C192.234 51.8099 190.659 54.8958 187.508 57.2656C184.357 59.6094 180.229 60.7812 175.125 60.7812C171.661 60.7812 168.576 60.1562 165.867 58.9062C163.159 57.6562 161.049 55.9375 159.539 53.75C158.029 51.5625 157.273 49.2057 157.273 46.6797H166.492C166.622 48.9193 167.469 50.651 169.031 51.875C170.594 53.0729 172.664 53.6719 175.242 53.6719C177.742 53.6719 179.643 53.2031 180.945 52.2656C182.247 51.3021 182.898 50.0521 182.898 48.5156Z" fill="#003D99"/>
<path d="M245.008 60H240.164V32.7344H207.664V60H202.859V3.125H207.664V28.6719H240.164V3.125H245.008V60ZM285.594 54.6484C282.781 58.737 278.289 60.7812 272.117 60.7812C267.612 60.7812 264.188 59.4792 261.844 56.875C259.5 54.2448 258.302 50.3646 258.25 45.2344V17.7344H262.898V44.6484C262.898 52.6953 266.154 56.7188 272.664 56.7188C279.435 56.7188 283.719 53.9193 285.516 48.3203V17.7344H290.203V60H285.672L285.594 54.6484ZM336.414 39.2969C336.414 45.8854 334.956 51.1198 332.039 55C329.122 58.8542 325.203 60.7812 320.281 60.7812C314.396 60.7812 309.943 58.5938 306.922 54.2188L306.727 60H302.352V0H307V23.8672C309.969 19.2578 314.37 16.9531 320.203 16.9531C325.203 16.9531 329.148 18.8672 332.039 22.6953C334.956 26.4974 336.414 31.7969 336.414 38.5938V39.2969ZM331.727 38.4766C331.727 32.9036 330.646 28.6068 328.484 25.5859C326.323 22.5391 323.276 21.0156 319.344 21.0156C316.349 21.0156 313.81 21.7578 311.727 23.2422C309.643 24.7005 308.068 26.849 307 29.6875V48.75C309.344 54.0625 313.484 56.7188 319.422 56.7188C323.276 56.7188 326.284 55.1953 328.445 52.1484C330.633 49.1016 331.727 44.5443 331.727 38.4766Z" fill="#000911"/>
</svg>
