<svg xmlns="http://www.w3.org/2000/svg" viewBox="0 0 111.49 106.19"><defs><style>.cls-1{isolation:isolate;}.cls-2{fill:#fff;}.cls-2,.cls-4,.cls-5,.cls-6{stroke:#2c343f;stroke-width:2px;}.cls-2,.cls-4,.cls-5,.cls-6,.cls-7{stroke-linecap:round;stroke-linejoin:round;}.cls-3{fill:#c9c9c9;mix-blend-mode:multiply;}.cls-4{fill:#2e9cff;}.cls-5{fill:#2c343f;}.cls-6,.cls-7{fill:none;}.cls-7{stroke:#5fd353;stroke-width:3px;}</style></defs><g class="cls-1"><g id="Layer_1" data-name="Layer 1"><polygon class="cls-2" points="84.21 1 22.9 1 22.9 98.44 97.35 98.44 97.35 14.14 84.21 14.14 84.21 1"/><path class="cls-2" d="M93.53,75.06v10.2a3.86,3.86,0,1,1,0,7.71V99.4a3.86,3.86,0,1,1,0,7.71v6.43a3.86,3.86,0,1,1,0,7.71v6.43a3.86,3.86,0,1,1,0,7.71v6.43a3.86,3.86,0,0,1,0,7.72V156a3.86,3.86,0,0,1,0,7.72v8.82h9.22V75.06Z" transform="translate(-79.85 -74.06)"/><polygon class="cls-2" points="97.35 14.14 84.21 14.14 84.21 1 97.35 14.14"/><path class="cls-3" d="M163,88.2v-12s-5.61,16.28-4,17.93,17.11-4.8,17.11-4.8H164.06A1.09,1.09,0,0,1,163,88.2Z" transform="translate(-79.85 -74.06)"/><rect class="cls-4" x="7.57" y="94.16" width="102.92" height="11.03"/><rect class="cls-5" x="7.57" y="94.16" width="9.58" height="11.03"/><rect class="cls-5" x="1" y="97.83" width="10.67" height="3.69"/><polyline class="cls-6" points="80.14 44.94 80.14 73.94 39.15 73.94 39.15 34.94 65.14 34.94"/><path class="cls-7" d="M166,108c-24,7-27,30-27,29,0-9-10-17-10-17" transform="translate(-79.85 -74.06)"/></g></g></svg>