<svg width="153" height="153" viewBox="0 0 153 153" fill="none" xmlns="http://www.w3.org/2000/svg">
<path d="M76.5 133.875C108.187 133.875 133.875 108.187 133.875 76.5C133.875 44.8127 108.187 19.125 76.5 19.125C44.8127 19.125 19.125 44.8127 19.125 76.5C19.125 108.187 44.8127 133.875 76.5 133.875Z" stroke="black" stroke-width="2" stroke-miterlimit="10"/>
<path d="M76.5 95.625C89.7031 95.625 100.406 84.9218 100.406 71.7188C100.406 58.5157 89.7031 47.8125 76.5 47.8125C63.2969 47.8125 52.5938 58.5157 52.5938 71.7188C52.5938 84.9218 63.2969 95.625 76.5 95.625Z" stroke="black" stroke-width="2" stroke-miterlimit="10"/>
<path d="M38.1298 119.157C41.7313 112.076 47.222 106.13 53.9941 101.977C60.7662 97.8233 68.5555 95.625 76.4998 95.625C84.444 95.625 92.2333 97.8233 99.0055 101.977C105.778 106.13 111.268 112.076 114.87 119.157" stroke="black" stroke-width="2" stroke-linecap="round" stroke-linejoin="round"/>
</svg>
