<svg width="100" height="100" viewBox="0 0 86 86" fill="none" xmlns="http://www.w3.org/2000/svg">
<path d="M29.5626 53.75C39.2103 53.75 47.0314 45.929 47.0314 36.2812C47.0314 26.6335 39.2103 18.8125 29.5626 18.8125C19.9149 18.8125 12.0939 26.6335 12.0939 36.2812C12.0939 45.929 19.9149 53.75 29.5626 53.75Z" stroke="black" stroke-width="2" stroke-miterlimit="10"/>
<path d="M52.2089 19.4632C54.6116 18.7862 57.1314 18.632 59.5987 19.0109C62.0661 19.3898 64.4235 20.2931 66.5124 21.6598C68.6012 23.0266 70.3729 24.825 71.7081 26.9342C73.0434 29.0433 73.9111 31.414 74.253 33.8868C74.5948 36.3595 74.4028 38.8767 73.6898 41.269C72.9769 43.6613 71.7596 45.873 70.1199 47.7551C68.4802 49.6373 66.4562 51.1463 64.1842 52.1804C61.9122 53.2145 59.4451 53.7497 56.9488 53.75" stroke="black" stroke-width="2" stroke-linecap="round" stroke-linejoin="round"/>
<path d="M5.37369 66.3129C8.10195 62.4322 11.7239 59.2648 15.9337 57.0783C20.1435 54.8917 24.8177 53.7502 29.5615 53.75C34.3053 53.7498 38.9795 54.891 43.1895 57.0773C47.3995 59.2635 51.0217 62.4306 53.7502 66.3111" stroke="black" stroke-width="2" stroke-linecap="round" stroke-linejoin="round"/>
<path d="M56.9488 53.75C61.6931 53.7466 66.3683 54.8864 70.5786 57.0729C74.7889 59.2594 78.4104 62.4282 81.1364 66.3111" stroke="black" stroke-width="2" stroke-linecap="round" stroke-linejoin="round"/>
</svg>
